<svg xmlns="http://www.w3.org/2000/svg" width="252.014" height="60" viewBox="0 0 252.014 60">
  <g id="Group_106073" data-name="Group 106073" transform="translate(-1400.68 -180)">
    <g id="Group_106028" data-name="Group 106028" transform="translate(1080 -117.172)">
      <path id="Path_167459" data-name="Path 167459" d="M2.836,1.947H6.828V3.509H.9V-8.3H2.836Zm8.051-8.679v3.465h4.076v1.58H10.887V1.93h4.586v1.58H8.951V-8.312h6.522v1.58ZM26.9-4.9A3.121,3.121,0,0,0,25.63-6.231a3.837,3.837,0,0,0-1.885-.45,4.12,4.12,0,0,0-2.089.527A3.69,3.69,0,0,0,20.22-4.66,4.681,4.681,0,0,0,19.7-2.418a4.731,4.731,0,0,0,.518,2.25,3.677,3.677,0,0,0,1.435,1.5,4.12,4.12,0,0,0,2.089.527A3.7,3.7,0,0,0,26.309.979a3.839,3.839,0,0,0,1.206-2.395H23.082V-2.962h6.505V-1.45a5.811,5.811,0,0,1-.977,2.531,5.81,5.81,0,0,1-2.055,1.843,5.789,5.789,0,0,1-2.811.688,6.1,6.1,0,0,1-3.04-.773A5.762,5.762,0,0,1,18.522.69a6.029,6.029,0,0,1-.807-3.108,6.029,6.029,0,0,1,.807-3.108,5.744,5.744,0,0,1,2.191-2.149,6.115,6.115,0,0,1,3.032-.773,6.159,6.159,0,0,1,3.354.926A5.271,5.271,0,0,1,29.231-4.9Zm12.212,6H34.173l-.849,2.412H31.3L35.532-8.312h2.242L42,3.509H39.965Zm-.544-1.58L36.653-5.968,34.717-.482Zm7.711,2.429h3.991V3.509H44.347V-8.3h1.936ZM69.756-8.3v11.8H67.82V-4.575l-3.6,8.085H62.877L59.26-4.575V3.509H57.323V-8.3h2.089L63.557.962,67.684-8.3ZM79.93,1.1H74.987l-.849,2.412H72.117L76.346-8.312h2.242L82.817,3.509H80.779Zm-.544-1.58L77.467-5.968,75.531-.482ZM94.86,3.509H92.923L87.1-5.306V3.509H85.161V-8.312H87.1l5.826,8.8v-8.8H94.86ZM105.033,1.1h-4.943l-.849,2.412H97.22L101.45-8.312h2.242l4.229,11.821h-2.038Zm-.543-1.58-1.919-5.486L100.634-.482ZM118.808-4.9a3.121,3.121,0,0,0-1.274-1.333,3.837,3.837,0,0,0-1.885-.45,4.12,4.12,0,0,0-2.089.527,3.69,3.69,0,0,0-1.435,1.495,4.681,4.681,0,0,0-.518,2.242,4.731,4.731,0,0,0,.518,2.25,3.677,3.677,0,0,0,1.435,1.5,4.12,4.12,0,0,0,2.089.527,3.7,3.7,0,0,0,2.565-.883,3.839,3.839,0,0,0,1.206-2.395h-4.433V-2.962h6.505V-1.45a5.811,5.811,0,0,1-.977,2.531,5.81,5.81,0,0,1-2.055,1.843,5.789,5.789,0,0,1-2.811.688,6.1,6.1,0,0,1-3.04-.773A5.762,5.762,0,0,1,110.426.69a6.029,6.029,0,0,1-.807-3.108,6.029,6.029,0,0,1,.807-3.108,5.744,5.744,0,0,1,2.191-2.149,6.115,6.115,0,0,1,3.032-.773A6.159,6.159,0,0,1,119-7.522,5.271,5.271,0,0,1,121.135-4.9Zm7.032-1.834v3.465h4.076v1.58H125.84V1.93h4.586v1.58H123.9V-8.312h6.522v1.58ZM145.746-8.3v11.8H143.81V-4.575l-3.6,8.085h-1.342l-3.618-8.085V3.509h-1.936V-8.3H135.4L139.546.962,143.674-8.3Zm4.994,1.563v3.465h4.076v1.58h-4.076V1.93h4.586v1.58H148.8V-8.312h6.522v1.58ZM167.911,3.509h-1.936l-5.826-8.815V3.509h-1.936V-8.312h1.936l5.826,8.8v-8.8h1.936ZM178.594-8.3v1.58h-3.142V3.509h-1.936V-6.716h-3.159V-8.3Z" transform="translate(394.1 346.503)" fill="#738399"/>
    </g>
    <g id="Group_106070" data-name="Group 106070" transform="translate(308.674 363.768)">
      <path id="Path_167684" data-name="Path 167684" d="M1905.937,965.732h-14.746v-60h45.2a14.772,14.772,0,0,1,14.746,14.745v12.815h-22.574v-9.276h-14.745v23.432h14.745v-9.276h22.574v12.815a14.771,14.771,0,0,1-14.746,14.745Zm7.346-17.158h15.764a2.449,2.449,0,0,1,2.467,2.413h0a2.449,2.449,0,0,1-2.467,2.413h-15.764a2.4,2.4,0,0,1-2.413-2.413h0a2.4,2.4,0,0,1,2.413-2.413Zm0-30.563h15.764a2.5,2.5,0,0,1,2.467,2.467h0a2.449,2.449,0,0,1-2.467,2.413h-15.764a2.4,2.4,0,0,1-2.413-2.413h0a2.449,2.449,0,0,1,2.413-2.467Z" transform="translate(-799.185 -1089.5)" fill="#c29f5f" fill-rule="evenodd"/>
      <path id="Path_167685" data-name="Path 167685" d="M1905.937,1349.766h-14.746v-1.448c3.164-8.686,11.367-16.89,22.628-22.252v5.416h14.745v-9.276h22.574v12.815a14.772,14.772,0,0,1-14.746,14.745Zm7.346-17.158h15.764a2.449,2.449,0,0,1,2.467,2.413h0a2.449,2.449,0,0,1-2.467,2.413h-15.764a2.4,2.4,0,0,1-2.413-2.413h0a2.4,2.4,0,0,1,2.413-2.413Z" transform="translate(-799.185 -1473.534)" fill="#3b4854" fill-rule="evenodd"/>
    </g>
    <path id="Path_167686" data-name="Path 167686" d="M8.775-18.954a11.025,11.025,0,0,1,5.238,1.188,8.487,8.487,0,0,1,3.47,3.334,9.8,9.8,0,0,1,1.229,4.955,9.817,9.817,0,0,1-1.229,4.941A8.442,8.442,0,0,1,14-1.188,11.045,11.045,0,0,1,8.775,0h-7.1V-18.954ZM8.478-4a5.572,5.572,0,0,0,4.077-1.431,5.418,5.418,0,0,0,1.458-4.05,5.511,5.511,0,0,0-1.458-4.077,5.511,5.511,0,0,0-4.077-1.458H6.291V-4ZM31.023.189a9.892,9.892,0,0,1-4.9-1.242,9.284,9.284,0,0,1-3.537-3.47,9.7,9.7,0,0,1-1.309-5.008,9.625,9.625,0,0,1,1.309-5,9.314,9.314,0,0,1,3.537-3.456,9.892,9.892,0,0,1,4.9-1.242,9.892,9.892,0,0,1,4.9,1.242,9.119,9.119,0,0,1,3.51,3.456,9.782,9.782,0,0,1,1.283,5,9.775,9.775,0,0,1-1.3,5.008,9.215,9.215,0,0,1-3.51,3.47A9.817,9.817,0,0,1,31.023.189Zm0-4.212a4.651,4.651,0,0,0,3.632-1.512,5.74,5.74,0,0,0,1.363-4,5.729,5.729,0,0,0-1.363-4.01,4.672,4.672,0,0,0-3.632-1.5,4.725,4.725,0,0,0-3.658,1.485A5.718,5.718,0,0,0,26-9.531a5.729,5.729,0,0,0,1.364,4.009A4.7,4.7,0,0,0,31.023-4.023ZM43.254-9.5a10.188,10.188,0,0,1,1.215-5.009,8.683,8.683,0,0,1,3.389-3.429,9.838,9.838,0,0,1,4.928-1.229,9.428,9.428,0,0,1,5.778,1.782,8.558,8.558,0,0,1,3.213,4.86H56.7a4.1,4.1,0,0,0-1.607-1.809,4.517,4.517,0,0,0-2.362-.621,4.41,4.41,0,0,0-3.456,1.485A5.746,5.746,0,0,0,47.952-9.5a5.746,5.746,0,0,0,1.323,3.969A4.41,4.41,0,0,0,52.731-4.05a4.517,4.517,0,0,0,2.362-.621A4.1,4.1,0,0,0,56.7-6.48h5.076a8.5,8.5,0,0,1-3.213,4.847A9.478,9.478,0,0,1,52.785.135a9.838,9.838,0,0,1-4.928-1.229,8.708,8.708,0,0,1-3.389-3.415A10.111,10.111,0,0,1,43.254-9.5ZM76.356,0,69.984-8.37V0H65.367V-18.954h4.617v8.316L76.3-18.954h5.427L74.385-9.666,82,0Zm13.2-15.255v3.834h6.183v3.564H89.559V-3.7h6.993V0H84.942V-18.954h11.61v3.7Zm24.381-3.7v3.7h-5.022V0H104.3V-15.255H99.279v-3.7Zm7.7,15.39h6.048V0H117.018V-18.954h4.617Zm20.817.216h-7.074L134.244,0h-4.833l6.858-18.954h5.346L148.473,0h-4.887Zm-1.188-3.564-2.349-6.939-2.322,6.939ZM177.39-18.954,172.449,0H166.86l-3.024-12.474L160.7,0h-5.589l-4.806-18.954h4.941l2.727,13.8,3.375-13.8h5.076l3.24,13.8,2.754-13.8Z" transform="translate(1473 208)" fill="#3b4854" stroke="rgba(0,0,0,0)" stroke-width="1"/>
  </g>
</svg>
