<svg xmlns="http://www.w3.org/2000/svg" width="191.861" height="39.525" viewBox="0 0 191.861 39.525">
  <g id="Group_106072" data-name="Group 106072" transform="translate(-1400.679 -180)">
    <g id="Group_106028" data-name="Group 106028" transform="translate(1456.844 206.525)">
      <path id="Path_167459" data-name="Path 167459" d="M2.335-.742H5.294V.416H.9V-8.335H2.335ZM8.3-7.176v2.569h3.022v1.171H8.3V-.755h3.4V.416H6.868V-8.347H11.7v1.171Zm11.874,1.36a2.313,2.313,0,0,0-.944-.988,2.845,2.845,0,0,0-1.4-.334,3.054,3.054,0,0,0-1.549.39A2.735,2.735,0,0,0,15.223-5.64a3.47,3.47,0,0,0-.384,1.662,3.507,3.507,0,0,0,.384,1.668A2.726,2.726,0,0,0,16.287-1.2a3.054,3.054,0,0,0,1.549.39,2.74,2.74,0,0,0,1.9-.655,2.846,2.846,0,0,0,.894-1.775H17.344V-4.381h4.823V-3.26a4.308,4.308,0,0,1-.724,1.876A4.307,4.307,0,0,1,19.919-.018a4.291,4.291,0,0,1-2.084.51,4.523,4.523,0,0,1-2.254-.573,4.271,4.271,0,0,1-1.618-1.593,4.47,4.47,0,0,1-.6-2.3,4.47,4.47,0,0,1,.6-2.3,4.259,4.259,0,0,1,1.624-1.593,4.533,4.533,0,0,1,2.248-.573,4.566,4.566,0,0,1,2.487.686A3.907,3.907,0,0,1,21.9-5.816Zm9.053,4.445H25.567L24.937.416h-1.5l3.135-8.764h1.662L31.371.416H29.86Zm-.4-1.171L27.4-6.61,25.97-2.543Zm5.717,1.8H37.5V.416H33.109V-8.335h1.435Zm17.4-7.593V.416H50.51V-5.577L47.841.416h-.995L44.164-5.577V.416H42.729V-8.335h1.549L47.35-1.472l3.06-6.862Zm7.542,6.963H55.824L55.194.416H53.7l3.135-8.764h1.662L61.629.416H60.118Zm-.4-1.171L57.662-6.61,56.227-2.543ZM70.556.416H69.12L64.8-6.119V.416H63.366V-8.347H64.8L69.12-1.825V-8.347h1.435ZM78.1-1.372H74.434L73.8.416h-1.5l3.135-8.764H77.1L80.239.416H78.728Zm-.4-1.171L76.272-6.61,74.837-2.543ZM88.31-5.816a2.313,2.313,0,0,0-.944-.988,2.845,2.845,0,0,0-1.4-.334,3.054,3.054,0,0,0-1.549.39A2.735,2.735,0,0,0,83.355-5.64a3.47,3.47,0,0,0-.384,1.662,3.507,3.507,0,0,0,.384,1.668A2.726,2.726,0,0,0,84.419-1.2a3.054,3.054,0,0,0,1.549.39,2.74,2.74,0,0,0,1.9-.655,2.846,2.846,0,0,0,.894-1.775H85.477V-4.381H90.3V-3.26a4.308,4.308,0,0,1-.724,1.876A4.307,4.307,0,0,1,88.052-.018a4.291,4.291,0,0,1-2.084.51,4.523,4.523,0,0,1-2.254-.573A4.272,4.272,0,0,1,82.1-1.674a4.47,4.47,0,0,1-.6-2.3,4.47,4.47,0,0,1,.6-2.3A4.259,4.259,0,0,1,83.72-7.875a4.533,4.533,0,0,1,2.248-.573,4.566,4.566,0,0,1,2.487.686,3.908,3.908,0,0,1,1.58,1.945Zm5.213-1.36v2.569h3.022v1.171H93.523V-.755h3.4V.416H92.087V-8.347h4.835v1.171ZM108.28-8.335V.416h-1.435V-5.577L104.175.416h-.995L100.5-5.577V.416H99.063V-8.335h1.549l3.072,6.862,3.06-6.862Zm3.7,1.158v2.569H115v1.171h-3.022V-.755h3.4V.416h-4.835V-8.347h4.835v1.171ZM124.712.416h-1.435l-4.319-6.535V.416h-1.435V-8.347h1.435l4.319,6.522V-8.347h1.435Zm7.92-8.751v1.171H130.3V.416h-1.435v-7.58h-2.342V-8.335Z" transform="translate(-0.9 8.448)" fill="#738399"/>
    </g>
    <g id="Group_106070" data-name="Group 106070" transform="translate(1400.679 180)">
      <path id="Path_167684" data-name="Path 167684" d="M1900.9,945.257h-9.714V905.732h29.777a9.731,9.731,0,0,1,9.714,9.714v8.442h-14.871v-6.111H1906.1v15.436h9.714V927.1h14.871v8.442a9.731,9.731,0,0,1-9.714,9.714Zm4.839-11.3h10.385a1.613,1.613,0,0,1,1.625,1.589h0a1.613,1.613,0,0,1-1.625,1.59h-10.385a1.583,1.583,0,0,1-1.589-1.59h0a1.583,1.583,0,0,1,1.589-1.589Zm0-20.134h10.385a1.643,1.643,0,0,1,1.625,1.625h0a1.613,1.613,0,0,1-1.625,1.589h-10.385a1.583,1.583,0,0,1-1.589-1.589h0a1.613,1.613,0,0,1,1.589-1.625Z" transform="translate(-1891.191 -905.732)" fill="#c29f5f" fill-rule="evenodd"/>
      <path id="Path_167685" data-name="Path 167685" d="M1900.9,1338.065h-9.714v-.833c2.084-5,7.488-9.719,14.906-12.8v3.116h9.714v-5.338h14.871v7.374c0,4.659-4.344,8.485-9.714,8.485Zm4.839-9.873h10.385a1.526,1.526,0,0,1,1.625,1.388h0a1.527,1.527,0,0,1-1.625,1.389h-10.385a1.493,1.493,0,0,1-1.589-1.389h0a1.493,1.493,0,0,1,1.589-1.388Z" transform="translate(-1891.191 -1298.539)" fill="#fff" fill-rule="evenodd"/>
    </g>
    <path id="Path_167687" data-name="Path 167687" d="M6.5-14.04a8.166,8.166,0,0,1,3.88.88,6.287,6.287,0,0,1,2.57,2.47,7.257,7.257,0,0,1,.91,3.67,7.272,7.272,0,0,1-.91,3.66A6.254,6.254,0,0,1,10.37-.88,8.182,8.182,0,0,1,6.5,0H1.24V-14.04ZM6.28-2.96A4.128,4.128,0,0,0,9.3-4.02a4.013,4.013,0,0,0,1.08-3A4.083,4.083,0,0,0,9.3-10.04a4.083,4.083,0,0,0-3.02-1.08H4.66v8.16ZM22.98.14a7.328,7.328,0,0,1-3.63-.92,6.877,6.877,0,0,1-2.62-2.57,7.183,7.183,0,0,1-.97-3.71,7.129,7.129,0,0,1,.97-3.7,6.9,6.9,0,0,1,2.62-2.56,7.328,7.328,0,0,1,3.63-.92,7.328,7.328,0,0,1,3.63.92,6.755,6.755,0,0,1,2.6,2.56,7.246,7.246,0,0,1,.95,3.7,7.241,7.241,0,0,1-.96,3.71A6.826,6.826,0,0,1,26.6-.78,7.272,7.272,0,0,1,22.98.14Zm0-3.12A3.445,3.445,0,0,0,25.67-4.1a4.252,4.252,0,0,0,1.01-2.96,4.244,4.244,0,0,0-1.01-2.97,3.46,3.46,0,0,0-2.69-1.11,3.5,3.5,0,0,0-2.71,1.1,4.236,4.236,0,0,0-1.01,2.98,4.244,4.244,0,0,0,1.01,2.97A3.484,3.484,0,0,0,22.98-2.98Zm9.06-4.06a7.547,7.547,0,0,1,.9-3.71,6.432,6.432,0,0,1,2.51-2.54,7.287,7.287,0,0,1,3.65-.91,6.984,6.984,0,0,1,4.28,1.32,6.339,6.339,0,0,1,2.38,3.6H42a3.037,3.037,0,0,0-1.19-1.34,3.346,3.346,0,0,0-1.75-.46,3.266,3.266,0,0,0-2.56,1.1,4.257,4.257,0,0,0-.98,2.94A4.257,4.257,0,0,0,36.5-4.1,3.266,3.266,0,0,0,39.06-3a3.346,3.346,0,0,0,1.75-.46A3.037,3.037,0,0,0,42-4.8h3.76a6.293,6.293,0,0,1-2.38,3.59A7.021,7.021,0,0,1,39.1.1a7.287,7.287,0,0,1-3.65-.91,6.45,6.45,0,0,1-2.51-2.53A7.49,7.49,0,0,1,32.04-7.04ZM56.56,0,51.84-6.2V0H48.42V-14.04h3.42v6.16l4.68-6.16h4.02L55.1-7.16,60.74,0Zm9.78-11.3v2.84h4.58v2.64H66.34v3.08h5.18V0h-8.6V-14.04h8.6v2.74ZM84.4-14.04v2.74H80.68V0H77.26V-11.3H73.54v-2.74ZM94.9-2.64h4.48V0h-7.9V-14.04H94.9Zm15.42.16h-5.24L104.24,0h-3.58l5.08-14.04h3.96L114.78,0h-3.62Zm-.88-2.64-1.74-5.14-1.72,5.14Zm26.76-8.92L132.54,0H128.4l-2.24-9.24L123.84,0H119.7l-3.56-14.04h3.66l2.02,10.22,2.5-10.22h3.76l2.4,10.22,2.04-10.22Z" transform="translate(1455.693 197)" fill="#fff" stroke="rgba(0,0,0,0)" stroke-width="1"/>
  </g>
</svg>
