<svg xmlns="http://www.w3.org/2000/svg" width="39.499" height="39.525" viewBox="0 0 39.499 39.525">
  <g id="Group_106072" data-name="Group 106072" transform="translate(-1400.674 -180)">
    <g id="Group_106070" data-name="Group 106070" transform="translate(1400.679 180)">
      <path id="Path_167684" data-name="Path 167684" d="M1900.9,945.257h-9.714V905.732h29.777a9.731,9.731,0,0,1,9.714,9.714v8.442h-14.871v-6.111H1906.1v15.436h9.714V927.1h14.871v8.442a9.731,9.731,0,0,1-9.714,9.714Zm4.839-11.3h10.385a1.613,1.613,0,0,1,1.625,1.589h0a1.613,1.613,0,0,1-1.625,1.59h-10.385a1.583,1.583,0,0,1-1.589-1.59h0a1.583,1.583,0,0,1,1.589-1.589Zm0-20.134h10.385a1.643,1.643,0,0,1,1.625,1.625h0a1.613,1.613,0,0,1-1.625,1.589h-10.385a1.583,1.583,0,0,1-1.589-1.589h0a1.613,1.613,0,0,1,1.589-1.625Z" transform="translate(-1891.191 -905.732)" fill="#c29f5f" fill-rule="evenodd"/>
      <path id="Path_167685" data-name="Path 167685" d="M1900.9,1338.06h-9.714v-.833c2.084-5,7.488-9.719,14.906-12.8v3.116h9.714V1322.2h14.871v7.374c0,4.659-4.344,8.485-9.714,8.485Zm4.839-9.873h10.385a1.526,1.526,0,0,1,1.625,1.388h0a1.527,1.527,0,0,1-1.625,1.389h-10.385a1.493,1.493,0,0,1-1.589-1.389h0a1.493,1.493,0,0,1,1.589-1.388Z" transform="translate(-1891.191 -1298.539)" fill="#fff" fill-rule="evenodd"/>
    </g>
  </g>
</svg>
